<?xml version="1.0" encoding="UTF-8" standalone="no"?>
<!-- Created with Inkscape (http://www.inkscape.org/) -->

<svg
   xmlns:dc="http://purl.org/dc/elements/1.1/"
   xmlns:cc="http://creativecommons.org/ns#"
   xmlns:rdf="http://www.w3.org/1999/02/22-rdf-syntax-ns#"
   xmlns:svg="http://www.w3.org/2000/svg"
   xmlns="http://www.w3.org/2000/svg"
   xmlns:sodipodi="http://sodipodi.sourceforge.net/DTD/sodipodi-0.dtd"
   xmlns:inkscape="http://www.inkscape.org/namespaces/inkscape"
   width="600"
   height="240"
   id="svg2980"
   version="1.1"
   inkscape:version="0.92.4 (5da689c313, 2019-01-14)"
   sodipodi:docname="temu-akrab.svg"
   inkscape:export-filename="C:\Users\Lenovo\Downloads\temu-akrab-MIT-stempel.png"
   inkscape:export-xdpi="149.80539"
   inkscape:export-ydpi="149.80539">
  <defs
     id="defs2982">
    <inkscape:perspective
       sodipodi:type="inkscape:persp3d"
       inkscape:vp_x="0 : 526.18109 : 1"
       inkscape:vp_y="0 : 1000 : 0"
       inkscape:vp_z="744.09448 : 526.18109 : 1"
       inkscape:persp3d-origin="372.04724 : 350.78739 : 1"
       id="perspective2988" />
    <inkscape:perspective
       id="perspective2952"
       inkscape:persp3d-origin="0.5 : 0.33333333 : 1"
       inkscape:vp_z="1 : 0.5 : 1"
       inkscape:vp_y="0 : 1000 : 0"
       inkscape:vp_x="0 : 0.5 : 1"
       sodipodi:type="inkscape:persp3d" />
    <linearGradient
       id="linearGradient3444">
      <stop
         style="stop-color:#ffffff;stop-opacity:1"
         offset="0"
         id="stop3446" />
      <stop
         style="stop-color:#fce94f;stop-opacity:0;"
         offset="1"
         id="stop3448" />
    </linearGradient>
    <inkscape:perspective
       id="perspective2990"
       inkscape:persp3d-origin="0.5 : 0.33333333 : 1"
       inkscape:vp_z="1 : 0.5 : 1"
       inkscape:vp_y="0 : 1000 : 0"
       inkscape:vp_x="0 : 0.5 : 1"
       sodipodi:type="inkscape:persp3d" />
  </defs>
  <sodipodi:namedview
     id="base"
     pagecolor="#ffffff"
     bordercolor="#666666"
     borderopacity="1.0"
     inkscape:pageopacity="0.0"
     inkscape:pageshadow="2"
     inkscape:zoom="0.98994949"
     inkscape:cx="517.09746"
     inkscape:cy="107.08353"
     inkscape:document-units="px"
     inkscape:current-layer="layer1"
     showgrid="false"
     inkscape:window-width="1366"
     inkscape:window-height="705"
     inkscape:window-x="-8"
     inkscape:window-y="-8"
     inkscape:window-maximized="1"
     fit-margin-top="20"
     fit-margin-left="20"
     fit-margin-right="20"
     fit-margin-bottom="20"
     showguides="false" />
  <metadata
     id="metadata2985">
    <rdf:RDF>
      <cc:Work
         rdf:about="">
        <dc:format>image/svg+xml</dc:format>
        <dc:type
           rdf:resource="http://purl.org/dc/dcmitype/StillImage" />
        <dc:title></dc:title>
      </cc:Work>
    </rdf:RDF>
  </metadata>
  <g
     inkscape:label="Layer 1"
     inkscape:groupmode="layer"
     id="layer1"
     transform="translate(-64.24942,-413.06968)">
    <g
       id="g4048"
       transform="matrix(0.94919547,0,0,0.94919547,9.2802517,26.7298)">
      <g
         id="text2383"
         style="font-style:normal;font-variant:normal;font-weight:normal;font-stretch:normal;font-size:46.28155899px;line-height:125%;font-family:'Nimbus Roman No9 L';-inkscape-font-specification:'Nimbus Roman No9 L';fill:#004780;fill-opacity:1;stroke:#004780;stroke-width:0.5">
        <path
           inkscape:connector-curvature="0"
           id="path3974"
           style="line-height:125%;font-family:'Organic Elements';-inkscape-font-specification:'Organic Elements';text-align:start;writing-mode:lr-tb;text-anchor:start;fill:#004780;stroke:#004780;stroke-width:0.5"
           d="m 194.00714,493.943 c -5e-5,0.30857 -0.63256,0.8331 -1.89754,1.57357 -3.91855,2.31411 -8.34615,3.47114 -13.28281,3.47112 -0.40114,2e-5 -1.0028,-0.0463 -1.80498,-0.13885 -0.77139,-0.0925 -1.35762,-0.13881 -1.7587,-0.13884 h -0.32397 v 24.06641 c -3e-5,1.97468 0.29309,3.25514 0.87935,3.84137 0.74047,0.7405 2.36033,1.03362 4.85956,0.87935 v 1.01819 h -15.3192 v -1.01819 h 2.45293 c 1.51184,0 2.51461,-0.55538 3.0083,-1.66614 0.24681,-0.55538 0.37023,-1.61985 0.37025,-3.19343 v -24.71435 l -11.98692,-3.23971 c -1.07991,-0.27766 -2.17524,-0.40107 -3.28599,-0.37025 -1.60444,0.0617 -2.88489,0.58626 -3.84137,1.57357 -0.92564,0.95652 -1.38845,2.23697 -1.38845,3.84137 0,3.08546 1.88211,5.30698 5.64635,6.66454 2.5609,0.92566 5.15267,1.34219 7.7753,1.24961 l 3.88765,-0.13885 c -2.96203,0.49369 -5.10641,0.74053 -6.43313,0.74051 -2.74605,2e-5 -5.24525,-0.53993 -7.49762,-1.61986 -3.14714,-1.51184 -4.72072,-3.81049 -4.72071,-6.89595 -1e-5,-2.65344 0.95648,-4.73611 2.86945,-6.24801 1.35759,-1.07987 3.5791,-1.61982 6.66455,-1.61985 2.43748,3e-5 6.43312,0.84853 11.98692,2.54548 4.50471,1.38848 8.63919,2.0827 12.40346,2.08267 3.02369,3e-5 5.86229,-0.7559 8.5158,-2.2678 0.92559,-0.52448 1.45012,-0.78675 1.57358,-0.78678 0.43191,3e-5 0.64789,0.16973 0.64794,0.5091" />
        <path
           inkscape:connector-curvature="0"
           id="path3976"
           style="line-height:125%;font-family:'Organic Elements';-inkscape-font-specification:'Organic Elements';text-align:start;writing-mode:lr-tb;text-anchor:start;fill:#004780;stroke:#004780;stroke-width:0.5"
           d="M 210.45445,516.7598 H 198.2824 v 2.03639 c 0,5.86234 1.95925,8.7935 5.87776,8.7935 2.99286,0 5.01382,-0.97191 6.06288,-2.91574 -0.46283,1.23418 -1.38846,2.23694 -2.77689,3.0083 -1.26504,0.70965 -2.60721,1.06448 -4.0265,1.06448 -2.53006,0 -4.5973,-0.86392 -6.20173,-2.59177 -1.60442,-1.75869 -2.40664,-3.9185 -2.40664,-6.47942 0,-2.62261 0.74051,-4.81327 2.22152,-6.57198 1.57357,-1.8821 3.65623,-2.82316 6.24801,-2.82317 1.75869,10e-6 3.36311,0.57082 4.81328,1.71241 1.57356,1.20334 2.36034,2.66892 2.36036,4.39675 v 0.37025 m -3.65624,-0.83306 v -1.94383 c -2e-5,-0.77134 -0.43198,-1.41928 -1.29589,-1.94383 -0.83308,-0.5245 -1.66614,-0.78676 -2.4992,-0.78678 -1.17247,2e-5 -2.22152,0.43198 -3.14715,1.29588 -0.89478,0.86394 -1.34217,1.88213 -1.34216,3.05458 v 0.32398 h 8.2844" />
        <path
           inkscape:connector-curvature="0"
           id="path3978"
           style="line-height:125%;font-family:'Organic Elements';-inkscape-font-specification:'Organic Elements';text-align:start;writing-mode:lr-tb;text-anchor:start;fill:#004780;stroke:#004780;stroke-width:0.5"
           d="m 248.39014,528.46904 h -8.46952 v -0.83307 c 1.04902,-0.15427 1.71239,-0.29312 1.99011,-0.41653 0.5862,-0.24684 0.87932,-0.75593 0.87935,-1.5273 v -10.2745 c -3e-5,-1.04904 -0.37029,-1.91296 -1.11076,-2.59177 -0.74054,-0.70963 -1.63531,-1.06446 -2.68433,-1.06447 -1.72787,1e-5 -3.23973,0.50911 -4.5356,1.52729 0.67878,-0.83306 1.57355,-1.52728 2.68433,-2.08267 1.11074,-0.58622 2.19064,-0.87933 3.23971,-0.87935 3.64079,2e-5 5.46119,1.92841 5.46123,5.78519 v 8.70094 c -4e-5,2.00553 0.84846,2.90031 2.54548,2.68433 v 0.97191 m -12.35717,0.0463 h -8.46953 v -1.01819 c 1.29587,0.12341 2.12894,-0.15428 2.49921,-0.83307 0.24681,-0.37025 0.37023,-1.06448 0.37025,-2.08267 v -8.23812 c -2e-5,-3.05457 -1.28047,-4.58186 -3.84137,-4.58187 -1.697,1e-5 -3.17801,0.47825 -4.44303,1.43472 1.60442,-1.91295 3.56367,-2.86943 5.87776,-2.86945 1.35757,2e-5 2.51461,0.38569 3.47111,1.15704 0.98732,0.74052 1.61984,1.77414 1.89755,3.10086 l 0.0926,11.10757 c -2e-5,1.3576 0.84848,1.95926 2.54549,1.80499 v 1.01819 m -11.94064,0 h -8.46953 v -1.01819 c 0.27769,0.0617 0.53995,0.0926 0.78679,0.0926 1.32673,0 1.9901,-1.20332 1.9901,-3.60996 v -8.14556 c 0,-1.29587 -0.0771,-2.11351 -0.2314,-2.45292 -0.2777,-0.64793 -0.95649,-0.9719 -2.03639,-0.97191 -0.43197,10e-6 -0.87936,0.16971 -1.34217,0.50909 -0.43196,0.33942 -0.70965,0.50912 -0.83307,0.5091 -0.7405,2e-5 -1.11075,-0.33938 -1.11075,-1.01819 0,-0.77135 0.60166,-1.15702 1.80498,-1.15704 0.12341,2e-5 0.27768,0.0154 0.46281,0.0463 0.21598,0.0309 0.38568,0.0463 0.5091,0.0463 1.32673,2e-5 2.97744,-0.33938 4.95213,-1.01819 0.18511,0.12343 0.37024,0.55539 0.55538,1.29588 0.21597,0.74052 0.32396,1.28047 0.32397,1.61986 v 12.77371 c -1e-5,0.55538 0.32396,0.97191 0.97191,1.2496 0.55537,0.24683 1.11075,0.32397 1.66614,0.23141 v 1.01819" />
        <path
           inkscape:connector-curvature="0"
           id="path3980"
           style="line-height:125%;font-family:'Organic Elements';-inkscape-font-specification:'Organic Elements';text-align:start;writing-mode:lr-tb;text-anchor:start;fill:#004780;stroke:#004780;stroke-width:0.5"
           d="m 272.36254,526.61778 c -2e-5,0.67879 -0.3857,1.15704 -1.15703,1.43472 -0.33942,0.0926 -1.00279,0.20056 -1.99011,0.32398 -1.82043,0.24683 -2.93118,0.41653 -3.33227,0.50909 -0.49369,-0.89477 -0.74052,-2.74603 -0.74051,-5.55378 v -9.90426 c -1e-5,-1.32672 -0.81765,-1.99009 -2.45292,-1.99011 -0.216,2e-5 -0.43198,0.0155 -0.64794,0.0463 v -1.0182 h 6.20173 v 13.83819 c -2e-5,0.98734 0.24681,1.97468 0.7405,2.96202 0.30852,-0.21598 0.61707,-0.6788 0.92563,-1.38845 0.24682,-0.55537 0.53993,-0.83306 0.87935,-0.83307 0.33938,10e-6 0.67878,0.18513 1.0182,0.55538 0.37023,0.3394 0.55535,0.6788 0.55537,1.0182 m -8.00671,-1.34217 c -1.51187,2.40664 -3.60997,3.60996 -6.29429,3.60996 -1.54272,0 -2.85403,-0.43196 -3.93393,-1.29588 -1.07991,-0.89478 -1.61986,-2.0981 -1.61985,-3.60996 v -10.22823 c -1e-5,-0.92561 -0.26227,-1.55813 -0.78679,-1.89754 -0.40111,-0.24682 -1.09533,-0.37024 -2.08267,-0.37025 v -1.0182 h 5.97032 v 13.32909 c -1e-5,2.4375 1.18789,3.65625 3.56368,3.65624 1.69698,1e-5 3.42482,-0.72507 5.18353,-2.17523" />
        <path
           inkscape:connector-curvature="0"
           id="path3982"
           style="line-height:125%;font-family:'Organic Elements';-inkscape-font-specification:'Organic Elements';text-align:start;writing-mode:lr-tb;text-anchor:start;fill:#004780;stroke:#004780;stroke-width:0.5"
           d="M 322.4175,528.46904 H 308.6256 V 527.312 c 0.80219,-0.0308 1.6044,-0.0463 2.40664,-0.0463 1.41927,-0.21598 2.12892,-0.81764 2.12895,-1.80498 -3e-5,-0.0308 -0.13887,-0.52452 -0.41653,-1.48101 -0.24687,-0.70965 -0.40114,-1.20332 -0.46282,-1.48101 -0.86395,-3.14714 -2.6535,-6.12458 -5.36866,-8.93234 -2.7152,-2.80773 -5.50752,-4.85955 -8.37696,-6.15545 l -3.19343,7.35877 c -2.12896,4.90585 -3.19343,7.97586 -3.19343,9.21003 0,1.0799 0.38568,1.91297 1.15704,2.4992 0.77135,0.58624 1.71241,0.86392 2.82318,0.83307 v 1.15704 h -11.01501 v -1.15704 c 2.25236,-0.21598 4.01106,-1.55814 5.27609,-4.0265 1.01819,-2.65346 1.80498,-4.659 2.36036,-6.0166 0.27768,-0.67878 1.74327,-4.08819 4.39675,-10.22822 -1.17248,-0.8639 -3.33228,-1.29586 -6.47942,-1.29589 -2.4992,3e-5 -4.84413,0.47827 -7.03479,1.43473 1.29588,-2.12893 4.02649,-3.1934 8.19183,-3.19343 2.00553,3e-5 4.04191,0.29314 6.10917,0.87935 l 5.73891,-13.46793 0.32397,0.0463 2.86946,6.5257 c 0.8639,2.15984 2.80772,6.9114 5.83148,14.25472 2.43746,5.98576 4.45842,10.44421 6.06288,13.37537 0.46278,0.80222 1.65067,1.37302 3.56368,1.71242 l 0.0926,1.15704 m -16.01342,-19.76223 -4.2579,-10.36707 -2.77689,6.94224 c 2.65346,0.83309 4.99839,1.9747 7.03479,3.42483" />
        <path
           inkscape:connector-curvature="0"
           id="path3984"
           style="line-height:125%;font-family:'Organic Elements';-inkscape-font-specification:'Organic Elements';text-align:start;writing-mode:lr-tb;text-anchor:start;fill:#004780;stroke:#004780;stroke-width:0.5"
           d="m 346.20332,528.93185 h -9.81169 v -0.97191 c 1.60441,-0.18512 2.40662,-0.53995 2.40664,-1.06447 -2e-5,-0.30855 -1.07992,-1.74327 -3.23971,-4.30419 -2.00555,-2.40663 -3.33228,-3.9185 -3.98022,-4.53559 2.80774,-2.53005 4.59729,-4.10362 5.36867,-4.72072 2.53004,-1.91296 4.58185,-2.86944 6.15544,-2.86946 1.60441,2e-5 2.40662,0.52454 2.40664,1.57357 -2e-5,0.98736 -0.47826,1.48103 -1.43472,1.48101 -0.12344,2e-5 -0.5554,-0.16968 -1.29589,-0.50909 -0.70967,-0.33938 -1.14163,-0.50908 -1.29588,-0.5091 -0.58625,2e-5 -1.78957,0.66338 -3.60996,1.99011 -1.35761,0.98735 -2.29867,1.72785 -2.82318,2.22151 l 5.83148,7.12736 c 2.06722,2.53006 3.84135,3.90308 5.32238,4.11906 v 0.97191 m -12.40346,0 h -9.90425 v -0.97191 c 0.55537,0 1.20332,-0.0463 1.94382,-0.13884 1.04905,-0.12342 1.57357,-0.57081 1.57357,-1.34217 v -27.39868 c 0,-1.85123 -0.13884,-3.10083 -0.41653,-3.74881 -0.18513,-0.43193 -1.04905,-0.74047 -2.59177,-0.92563 v -1.06448 c 1.54272,-0.0925 3.0083,-0.27765 4.39675,-0.55537 0.89477,-0.30851 1.40387,-0.46278 1.52729,-0.46282 h 0.64794 v 33.73926 c 0,1.23417 0.94105,1.86669 2.82318,1.89754 v 0.97191" />
        <path
           inkscape:connector-curvature="0"
           id="path3986"
           style="line-height:125%;font-family:'Organic Elements';-inkscape-font-specification:'Organic Elements';text-align:start;writing-mode:lr-tb;text-anchor:start;fill:#004780;stroke:#004780;stroke-width:0.5"
           d="m 364.31532,512.64075 c -2e-5,0.30855 -0.16971,0.64795 -0.5091,1.01819 -0.33941,0.33941 -0.66338,0.50911 -0.97191,0.5091 -0.21599,10e-6 -0.77137,-0.30853 -1.66613,-0.92563 -0.86394,-0.61708 -1.52731,-0.92562 -1.99011,-0.92564 -1.38846,2e-5 -2.69977,0.98736 -3.93393,2.96202 1.82039,-3.23969 3.90306,-4.85954 6.24801,-4.85956 0.64792,2e-5 1.28044,0.216 1.89754,0.64794 0.61707,0.43198 0.92561,0.9565 0.92563,1.57358 m -6.47942,15.92085 h -9.67284 v -0.97191 c 2.09809,0.21598 3.14714,-0.40111 3.14714,-1.85126 v -11.38527 c 0,-1.2033 -0.81764,-1.80496 -2.45292,-1.80498 -0.21598,2e-5 -0.44739,0.0154 -0.69422,0.0463 v -0.97191 c 2.06724,-0.27767 3.90307,-0.70963 5.5075,-1.29588 0.18512,0.43198 0.33939,1.06449 0.46282,1.89754 0.15426,1.04906 0.24683,1.61987 0.27769,1.71242 l 0.18512,5.64635 v 6.66454 c 0,0.92564 0.75593,1.38845 2.2678,1.38845 0.30853,0 0.63251,-0.0154 0.97191,-0.0463 v 0.97191" />
        <path
           inkscape:connector-curvature="0"
           id="path3988"
           style="line-height:125%;font-family:'Organic Elements';-inkscape-font-specification:'Organic Elements';text-align:start;writing-mode:lr-tb;text-anchor:start;fill:#004780;stroke:#004780;stroke-width:0.5"
           d="m 383.7073,525.92355 c -2e-5,0.83307 -0.3857,1.54272 -1.15704,2.12895 -0.74052,0.55538 -1.54273,0.83307 -2.40664,0.83307 -1.78957,0 -2.96203,-1.01819 -3.5174,-3.05458 -2.7769,2.03639 -5.09098,3.05458 -6.94223,3.05458 -1.17247,0 -2.19066,-0.35482 -3.05458,-1.06447 -0.83307,-0.70965 -1.24961,-1.63528 -1.24961,-2.7769 0,-2.06723 1.29589,-3.73337 3.88765,-4.99841 0.18513,-0.0925 2.06724,-0.9719 5.64635,-2.63804 -3.98022,2.34494 -5.97032,4.64359 -5.97032,6.89595 0,0.80222 0.21598,1.49644 0.64795,2.08267 0.46281,0.55538 1.07989,0.83307 1.85126,0.83307 1.481,0 3.2397,-0.91021 5.2761,-2.73062 v -9.99681 c -2e-5,-2.28321 -1.37303,-3.42482 -4.11906,-3.42484 -1.51187,2e-5 -2.54549,0.37027 -3.10087,1.11076 -0.0309,0.0617 -0.26226,0.77137 -0.69422,2.12895 -0.24684,0.77137 -0.74051,1.15705 -1.48101,1.15704 -0.89478,10e-6 -1.34217,-0.43195 -1.34217,-1.29588 0,-1.54271 1.04905,-2.66889 3.14715,-3.37856 1.35759,-0.46279 2.6689,-0.6942 3.93393,-0.69422 4.53558,2e-5 6.80338,1.72786 6.80339,5.18353 v 10.22823 c -10e-6,1.14161 0.44737,1.71242 1.34217,1.71242 1.07988,0 1.65069,-0.69423 1.71241,-2.08267 h 0.78679 v 0.78678" />
        <path
           inkscape:connector-curvature="0"
           id="path3990"
           style="line-height:125%;font-family:'Organic Elements';-inkscape-font-specification:'Organic Elements';text-align:start;writing-mode:lr-tb;text-anchor:start;fill:#004780;stroke:#004780;stroke-width:0.5"
           d="m 405.40756,519.30529 c -2e-5,2.68434 -0.75595,4.89042 -2.2678,6.61826 -1.57359,1.82041 -3.68711,2.73061 -6.34057,2.73061 -2.34494,0 -4.24249,-1.00276 -5.69263,-3.0083 -0.30855,0.24684 -1.11077,1.06448 -2.40664,2.45293 -0.80222,0.86392 -1.51187,1.29588 -2.12896,1.29588 -0.95648,0 -1.43472,-0.46282 -1.43472,-1.38845 0,-1.20332 0.94105,-1.77412 2.82317,-1.71242 v -31.42517 c 0,-0.55535 -0.30855,-0.95645 -0.92563,-1.20332 -0.58624,-0.27766 -1.17247,-0.38565 -1.7587,-0.32398 v -0.87934 c 1.91297,3e-5 3.71795,-0.32394 5.41494,-0.97192 h 0.37025 v 30.26814 c 0,1.72785 0.40111,3.1163 1.20333,4.16534 0.86391,1.14162 2.14436,1.71242 3.84136,1.71242 3.82593,0 5.7389,-2.8386 5.73892,-8.51581 -2e-5,-5.33779 -2.11354,-8.00669 -6.34058,-8.00671 -0.98734,2e-5 -1.74328,0.0617 -2.26779,0.18513 1.32673,-0.74049 2.60718,-1.11074 3.84137,-1.11076 2.5609,2e-5 4.61271,0.8948 6.15544,2.68433 1.45014,1.69701 2.17522,3.84138 2.17524,6.43314" />
      </g>
      <g
         id="text2387"
         style="font-style:normal;font-variant:normal;font-weight:normal;font-stretch:normal;font-size:121.45180511px;line-height:125%;font-family:'Nimbus Roman No9 L';-inkscape-font-specification:'Nimbus Roman No9 L';fill:#004780;fill-opacity:1;stroke:#004780;stroke-width:2">
        <path
           inkscape:connector-curvature="0"
           id="path3963"
           style="line-height:125%;font-family:Sawasdee;-inkscape-font-specification:Sawasdee;text-align:start;writing-mode:lr-tb;text-anchor:start;fill:#004780;stroke:#004780;stroke-width:2"
           d="m 85.173317,541.04016 h 5.811658 l 19.688475,47.02699 20.1629,-48.09444 20.2222,48.09444 19.21405,-47.02699 h 5.69306 l -24.90711,61.14102 -20.40011,-48.03514 -20.1629,48.03514 -25.322223,-61.14102" />
        <path
           inkscape:connector-curvature="0"
           id="path3965"
           style="line-height:125%;font-family:Sawasdee;-inkscape-font-specification:Sawasdee;text-align:start;writing-mode:lr-tb;text-anchor:start;fill:#004780;stroke:#004780;stroke-width:2"
           d="m 232.00666,601.17303 h -5.69306 c -0.71168,-2.25349 -1.06749,-4.90234 -1.06745,-7.94655 v -4.68491 c -2.84657,3.95352 -6.26635,7.21516 -10.25935,9.78494 -3.95355,2.56978 -8.14426,3.85467 -12.57216,3.85467 -3.20237,0 -6.06866,-0.49419 -8.59888,-1.48257 -2.49073,-1.02791 -4.46748,-2.3721 -5.93027,-4.03258 -1.46281,-1.66046 -2.56979,-3.41977 -3.32095,-5.27793 -0.75117,-1.89767 -1.12675,-3.81512 -1.12675,-5.75236 0,-2.01627 0.29651,-3.87442 0.88954,-5.57444 0.63256,-1.69999 1.42326,-3.14302 2.37211,-4.3291 0.98837,-1.22556 2.27325,-2.31277 3.85467,-3.26164 1.62092,-0.98835 3.16279,-1.77905 4.62561,-2.37211 1.50231,-0.63253 3.36046,-1.16625 5.57444,-1.60117 2.21394,-0.47439 4.13139,-0.81044 5.75236,-1.00814 1.62091,-0.23718 3.6372,-0.41509 6.04887,-0.53373 2.4116,-0.11857 4.30929,-0.17787 5.69305,-0.17791 1.42322,-0.0395 3.22207,-0.0593 5.39654,-0.0593 h 1.60117 c -0.19772,-6.52325 -2.13494,-11.72211 -5.81165,-15.59659 -3.63727,-3.87439 -7.84775,-5.81161 -12.63147,-5.81166 -2.80701,5e-5 -5.5547,0.73145 -8.24306,2.1942 -2.64887,1.46285 -4.96167,3.59774 -6.93841,6.40468 l -4.21049,-2.78722 c 2.41163,-3.71625 5.31746,-6.50347 8.71749,-8.36167 3.39999,-1.85809 6.95815,-2.78717 10.67447,-2.78723 3.00464,6e-5 5.8907,0.61286 8.65819,1.83838 2.80695,1.18611 5.31743,2.88612 7.53143,5.10003 2.21392,2.17448 3.993,4.98147 5.33724,8.42097 1.38368,3.4396 2.11508,7.23497 2.1942,11.38611 v 26.50828 c -5e-5,3.43956 0.49413,6.08841 1.48257,7.94655 m -29.59202,-4.26979 c 4.5465,10e-6 8.95466,-1.52209 13.22449,-4.5663 4.26974,-3.04419 7.47208,-6.52327 9.60702,-10.43726 v -11.38611 c -1.85819,0.0396 -3.41983,0.0791 -4.6849,0.11861 -1.22563,0.0396 -2.92564,0.1384 -5.10003,0.29651 -2.13493,0.11863 -3.95354,0.27677 -5.45584,0.47442 -1.50237,0.15817 -3.26168,0.43492 -5.27794,0.83024 -1.97678,0.39538 -3.65702,0.85003 -5.04072,1.36396 -1.38375,0.47445 -2.82678,1.10701 -4.3291,1.89768 -1.46281,0.75119 -2.64886,1.6012 -3.55815,2.55002 -0.90932,0.90932 -1.66049,2.01631 -2.2535,3.32094 -0.55351,1.30468 -0.83025,2.72794 -0.83024,4.26979 -1e-5,2.84654 1.18604,5.43609 3.55816,7.76865 2.37209,2.33257 5.75233,3.49886 10.14075,3.49885" />
        <path
           inkscape:connector-curvature="0"
           id="path3967"
           style="line-height:125%;font-family:Sawasdee;-inkscape-font-specification:Sawasdee;text-align:start;writing-mode:lr-tb;text-anchor:start;fill:#004780;stroke:#004780;stroke-width:2"
           d="m 248.7893,541.04016 h 5.69305 c 0.75115,2.60937 1.12674,5.25822 1.12675,7.94655 v 7.47213 c 0.90929,-3.04415 3.02442,-6.20695 6.34538,-9.48842 3.32093,-3.28135 6.66164,-5.57439 10.02215,-6.8791 l 5.93026,4.21048 c -3.47912,6e-5 -6.9582,1.22565 -10.43726,3.67677 -3.43958,2.45122 -6.2861,5.71287 -8.53958,9.78493 -2.21398,4.03262 -3.32096,8.20357 -3.32095,12.51286 v 30.89667 h -5.33724 v -52.18632 c -1e-5,-3.39996 -0.49419,-6.04881 -1.48256,-7.94655" />
        <path
           inkscape:connector-curvature="0"
           id="path3969"
           style="line-height:125%;font-family:Sawasdee;-inkscape-font-specification:Sawasdee;text-align:start;writing-mode:lr-tb;text-anchor:start;fill:#004780;stroke:#004780;stroke-width:2"
           d="m 336.73512,541.04016 h 5.69305 c -0.9489,1.81867 -1.42332,4.46752 -1.42326,7.94655 v 52.18632 c -6e-5,5.53491 -1.24542,10.67447 -3.73607,15.41869 -2.45123,4.74419 -5.81171,8.50002 -10.08145,11.2675 -4.26983,2.80696 -8.93497,4.21046 -13.99542,4.21049 -6.9582,-3e-5 -13.00707,-2.56981 -18.14661,-7.70934 l 3.85467,-3.67677 c 4.1907,4.07209 9.03374,6.10815 14.52915,6.10817 6.08836,-2e-5 11.32676,-2.49073 15.7152,-7.47213 4.38834,-4.98143 6.58254,-11.0303 6.58259,-18.14661 v -15.41868 c -1.46285,4.30933 -4.40821,8.1047 -8.83609,11.38611 -4.38844,3.28141 -8.87567,4.92211 -13.4617,4.92211 -5.02099,0 -9.64659,-1.40349 -13.87682,-4.21048 -4.19073,-2.80699 -7.49191,-6.58259 -9.90354,-11.32681 -2.37211,-4.78372 -3.55816,-9.94305 -3.55816,-15.47799 0,-5.53487 1.18605,-10.65466 3.55816,-15.35938 2.41163,-4.74416 5.71281,-8.51976 9.90354,-11.3268 4.23023,-2.84647 8.85583,-4.26973 13.87682,-4.26979 4.50696,6e-5 8.97442,1.70006 13.4024,5.10002 4.42788,3.36054 7.393,7.11637 8.89539,11.2675 v -7.47213 c -5e-5,-2.96507 0.33599,-5.61392 1.00815,-7.94655 m -1.36396,30.00713 c -6e-5,-7.11628 -2.21402,-13.16514 -6.6419,-18.1466 -4.38844,-4.98137 -9.60707,-7.47208 -15.6559,-7.47214 -6.08843,6e-5 -11.32682,2.49077 -15.71519,7.47214 -4.38841,4.98146 -6.58261,11.03032 -6.5826,18.1466 -1e-5,7.11634 2.19419,13.18497 6.5826,18.20591 4.4279,5.02097 9.6663,7.53144 15.71519,7.53144 6.04883,0 11.26746,-2.51047 15.6559,-7.53144 4.42788,-5.06047 6.64184,-11.1291 6.6419,-18.20591" />
        <path
           inkscape:connector-curvature="0"
           id="path3971"
           style="line-height:125%;font-family:Sawasdee;-inkscape-font-specification:Sawasdee;text-align:start;writing-mode:lr-tb;text-anchor:start;fill:#004780;stroke:#004780;stroke-width:2"
           d="m 405.40758,601.17303 h -5.69305 c -0.71168,-2.25349 -1.0675,-4.90234 -1.06745,-7.94655 v -4.68491 c -2.84657,3.95352 -6.26635,7.21516 -10.25936,9.78494 -3.95354,2.56978 -8.14426,3.85467 -12.57216,3.85467 -3.20236,0 -6.06865,-0.49419 -8.59888,-1.48257 -2.49072,-1.02791 -4.46748,-2.3721 -5.93026,-4.03258 -1.46281,-1.66046 -2.56979,-3.41977 -3.32095,-5.27793 -0.75117,-1.89767 -1.12676,-3.81512 -1.12675,-5.75236 -1e-5,-2.01627 0.29651,-3.87442 0.88954,-5.57444 0.63255,-1.69999 1.42325,-3.14302 2.3721,-4.3291 0.98837,-1.22556 2.27326,-2.31277 3.85467,-3.26164 1.62093,-0.98835 3.1628,-1.77905 4.62561,-2.37211 1.50232,-0.63253 3.36046,-1.16625 5.57445,-1.60117 2.21394,-0.47439 4.13139,-0.81044 5.75235,-1.00814 1.62091,-0.23718 3.6372,-0.41509 6.04887,-0.53373 2.41161,-0.11857 4.30929,-0.17787 5.69306,-0.17791 1.42322,-0.0395 3.22206,-0.0593 5.39654,-0.0593 h 1.60117 c -0.19772,-6.52325 -2.13494,-11.72211 -5.81166,-15.59659 -3.63727,-3.87439 -7.84775,-5.81161 -12.63146,-5.81166 -2.80702,5e-5 -5.55471,0.73145 -8.24307,2.1942 -2.64887,1.46285 -4.96167,3.59774 -6.93841,6.40468 l -4.21049,-2.78722 c 2.41163,-3.71625 5.31746,-6.50347 8.71749,-8.36167 3.4,-1.85809 6.95815,-2.78717 10.67448,-2.78723 3.00463,6e-5 5.89069,0.61286 8.65818,1.83838 2.80695,1.18611 5.31743,2.88612 7.53144,5.10003 2.21392,2.17448 3.99299,4.98147 5.33724,8.42097 1.38367,3.4396 2.11507,7.23497 2.19419,11.38611 v 26.50828 c -5e-5,3.43956 0.49414,6.08841 1.48257,7.94655 m -29.59202,-4.26979 c 4.54651,10e-6 8.95467,-1.52209 13.22449,-4.5663 4.26975,-3.04419 7.47209,-6.52327 9.60703,-10.43726 v -11.38611 c -1.8582,0.0396 -3.41983,0.0791 -4.68491,0.11861 -1.22563,0.0396 -2.92564,0.1384 -5.10003,0.29651 -2.13493,0.11863 -3.95354,0.27677 -5.45584,0.47442 -1.50236,0.15817 -3.26167,0.43492 -5.27793,0.83024 -1.97678,0.39538 -3.65702,0.85003 -5.04073,1.36396 -1.38375,0.47445 -2.82678,1.10701 -4.32909,1.89768 -1.46282,0.75119 -2.64887,1.6012 -3.55816,2.55002 -0.90932,0.90932 -1.66049,2.01631 -2.2535,3.32094 -0.5535,1.30468 -0.83025,2.72794 -0.83024,4.26979 -10e-6,2.84654 1.18604,5.43609 3.55816,7.76865 2.37209,2.33257 5.75234,3.49886 10.14075,3.49885" />
      </g>
      <path
         inkscape:connector-curvature="0"
         id="path2632"
         d="m 432.71714,484.30037 -7.11097,7.11097 h 30.71204 v 111.1396 h 7.17227 v -111.1396 h 30.65075 v -7.11097 z"
         style="font-style:normal;font-variant:normal;font-weight:normal;font-stretch:normal;font-size:40px;line-height:125%;font-family:'Nimbus Roman No9 L';-inkscape-font-specification:'Nimbus Roman No9 L';fill:#004780;fill-opacity:1;stroke:#004780;stroke-width:2"
         inkscape:export-filename="/media/data/gambar/logo/mit/temu-akrab-mit.png"
         inkscape:export-xdpi="90"
         inkscape:export-ydpi="90" />
      <path
         inkscape:connector-curvature="0"
         id="path2634"
         d="m 412.75004,484.28116 v 111.12633 l 7.14884,7.14884 V 491.40939 l 7.10763,-7.12823 h -7.10763 -0.94769 z"
         style="font-style:normal;font-variant:normal;font-weight:normal;font-stretch:normal;font-size:40px;line-height:125%;font-family:'Nimbus Roman No9 L';-inkscape-font-specification:'Nimbus Roman No9 L';fill:#004780;fill-opacity:1;stroke:#004780;stroke-width:2"
         inkscape:export-filename="/media/data/gambar/logo/mit/temu-akrab-mit.png"
         inkscape:export-xdpi="90"
         inkscape:export-ydpi="90" />
      <path
         inkscape:connector-curvature="0"
         sodipodi:nodetypes="cccc"
         id="path2636"
         d="m 421.39821,483.78116 h 7.14236 l -7.14236,7.14236 z"
         style="fill:#eebd13;fill-opacity:1;stroke:#eebd13"
         inkscape:export-filename="/media/data/gambar/logo/mit/temu-akrab-mit.png"
         inkscape:export-xdpi="90"
         inkscape:export-ydpi="90" />
      <path
         inkscape:connector-curvature="0"
         id="path2640"
         d="m 571.25,433.8125 c -51.04192,0 -92.40625,41.36433 -92.40625,92.40625 0,51.04192 41.36433,92.40625 92.40625,92.40625 51.04192,0 92.4375,-41.36433 92.4375,-92.40625 0,-51.04192 -41.39558,-92.40625 -92.4375,-92.40625 z m 4.03125,17.1875 -4.15625,7.25 -0.4375,0.65625 -0.4375,0.59375 -0.4375,0.59375 -0.4375,0.53125 -0.40625,0.5 -0.4375,0.46875 -0.4375,0.4375 -0.4375,0.375 -0.4375,0.34375 -0.5,0.375 -0.46875,0.375 -0.5,0.3125 -0.5625,0.34375 -0.53125,0.3125 -0.59375,0.34375 -0.625,0.28125 -8.84375,2.9375 -11.25,3.9375 -1.3125,0.5 -1.15625,0.46875 -1.09375,0.53125 L 538.75,474 l -0.875,0.5625 -0.8125,0.53125 -0.71875,0.5625 -0.625,0.53125 -0.6875,-1.40625 -0.0937,-0.34375 V 474.09375 473.75 l 0.0312,-0.375 0.0937,-0.34375 0.0937,-0.34375 0.125,-0.34375 0.1875,-0.375 2.5,-4.5 0.1875,-0.25 L 538.375,467 l 0.25,-0.25 0.3125,-0.21875 0.3125,-0.28125 0.40625,-0.21875 0.40625,-0.25 0.46875,-0.25 1.03125,-0.46875 1.21875,-0.5 1.34375,-0.53125 1.53125,-0.53125 12.90625,-4.28125 2.03125,-0.75 1.9375,-0.75 1.875,-0.78125 1.75,-0.78125 1.6875,-0.84375 1.5625,-0.875 0.75,-0.4375 0.75,-0.5 0.6875,-0.4375 0.6875,-0.46875 z m 18.96875,5.0625 -5.0625,9.15625 -0.5625,0.8125 -0.5625,0.8125 -0.5625,0.75 -0.5625,0.71875 -0.59375,0.65625 -0.5625,0.625 -0.59375,0.625 -0.59375,0.53125 -0.59375,0.53125 -0.65625,0.53125 -0.6875,0.53125 -0.71875,0.5 -0.75,0.5 -0.78125,0.53125 -0.84375,0.5 -0.875,0.5 -13,5.71875 -16.46875,7.53125 -1.84375,0.90625 -1.75,0.875 -1.59375,0.875 -1.40625,0.84375 -0.65625,0.4375 -0.625,0.40625 -0.59375,0.4375 -0.53125,0.40625 -0.53125,0.375 -0.46875,0.40625 -0.4375,0.40625 -0.40625,0.40625 -1.34375,-1.34375 -0.15625,-0.375 -0.0625,-0.40625 -0.0625,-0.34375 v -0.40625 l 0.0625,-0.40625 0.0625,-0.4375 0.15625,-0.40625 0.1875,-0.4375 3.09375,-5.6875 0.21875,-0.3125 0.3125,-0.3125 0.3125,-0.34375 0.40625,-0.3125 0.46875,-0.375 0.5625,-0.375 0.5625,-0.40625 0.65625,-0.34375 1.5,-0.875 1.75,-0.875 2,-0.96875 2.21875,-1.03125 18.9375,-8.34375 2.9375,-1.375 2.84375,-1.34375 1.375,-0.6875 1.34375,-0.6875 L 580,465 l 1.25,-0.71875 1.1875,-0.6875 1.21875,-0.6875 1.125,-0.6875 1.09375,-0.75 1.09375,-0.6875 1.03125,-0.6875 1.03125,-0.71875 0.9375,-0.71875 z m 22.96875,8.3125 h 0.375 0.3125 0.34375 l 0.28125,0.0312 0.3125,0.0625 0.28125,0.0937 0.28125,0.0937 0.25,0.125 0.28125,0.125 0.25,0.1875 0.21875,0.1875 0.21875,0.1875 0.21875,0.21875 0.1875,0.25 0.1875,0.25 2.21875,7.28125 -0.625,8.59375 -1.6875,5.875 -1.46875,1.21875 -1.375,1.1875 -1.3125,1.09375 -1.28125,1.0625 -1.25,0.96875 -1.125,0.9375 -1.09375,0.875 -1.03125,0.78125 -0.46875,0.375 -0.5,0.375 -0.53125,0.375 -0.53125,0.28125 -0.53125,0.3125 -0.53125,0.28125 -0.5625,0.28125 -0.53125,0.21875 -0.59375,0.25 -0.59375,0.1875 -0.5625,0.1875 -0.59375,0.1875 -0.59375,0.125 -0.625,0.15625 -0.59375,0.125 -0.625,0.0625 -0.53125,0.0625 h -0.5 -0.5625 l -0.5,-0.0312 -0.5625,-0.0312 -0.5,-0.125 -0.53125,-0.0937 -0.5625,-0.15625 -0.53125,-0.1875 -0.53125,-0.21875 -0.53125,-0.21875 -0.5625,-0.28125 -0.53125,-0.28125 -0.5625,-0.34375 -0.5625,-0.375 -0.5625,-0.34375 12.34375,-4 0.84375,-0.125 0.875,-0.1875 0.84375,-0.21875 0.875,-0.3125 0.875,-0.34375 0.875,-0.40625 0.875,-0.4375 0.90625,-0.53125 0.90625,-0.5625 0.9375,-0.625 0.9375,-0.65625 0.9375,-0.6875 0.96875,-0.8125 0.9375,-0.8125 0.96875,-0.875 0.96875,-0.90625 L 620.8125,483.25 620.1875,481 616.5,481.9375 615.84375,482 h -0.625 l -0.59375,-0.0312 -0.53125,-0.0625 -0.5,-0.15625 -0.46875,-0.1875 -0.4375,-0.21875 -0.34375,-0.28125 -0.375,-0.34375 -0.3125,-0.375 -0.28125,-0.40625 -0.21875,-0.46875 -0.1875,-0.5625 -0.125,-0.59375 -0.125,-0.625 -0.0625,-0.65625 -0.0312,-0.46875 v -0.46875 l 0.0312,-0.46875 0.0312,-0.46875 0.0625,-0.53125 0.125,-0.46875 0.0937,-0.46875 0.125,-0.53125 0.1875,-0.46875 0.15625,-0.5 0.1875,-0.46875 0.25,-0.53125 0.53125,-1 0.625,-1.03125 0.34375,-0.90625 0.40625,-0.8125 0.21875,-0.375 0.21875,-0.375 0.21875,-0.28125 0.21875,-0.28125 0.53125,-0.5625 0.53125,-0.4375 0.5625,-0.40625 0.5625,-0.3125 0.375,-0.0312 z m -1.5,7.25 -0.46875,0.3125 -0.4375,0.28125 -0.375,0.28125 -0.3125,0.3125 -0.3125,0.25 -0.21875,0.25 -0.125,0.25 -0.125,0.25 -0.3125,1.46875 1.34375,0.78125 5.375,-1.1875 -0.375,-0.5 -0.3125,-0.46875 -0.375,-0.4375 -0.34375,-0.40625 -0.3125,-0.34375 -0.375,-0.28125 -0.3125,-0.28125 L 617,471.9375 l -0.40625,0.0312 -0.34375,-0.0312 -0.15625,-0.0937 -0.15625,-0.0312 -0.0937,-0.0625 -0.125,-0.125 z m -22,4 4.1875,5.6875 1.65625,3.71875 0.1875,0.53125 0.15625,0.5 0.125,0.4375 0.0625,0.40625 v 0.375 0.3125 l -0.0312,0.3125 -0.0937,0.25 -0.15625,0.40625 -0.1875,0.375 -0.1875,0.375 -0.21875,0.34375 L 599,490 l -0.21875,0.3125 -0.25,0.3125 -0.28125,0.25 -0.28125,0.3125 -0.25,0.21875 -0.28125,0.21875 -0.34375,0.21875 -0.28125,0.1875 -0.34375,0.1875 -0.375,0.125 -0.3125,0.15625 -3.4375,0.5 -0.375,-0.0625 -0.40625,-0.125 -0.375,-0.125 -0.4375,-0.1875 -0.4375,-0.21875 -0.5,-0.28125 -0.4375,-0.3125 -0.46875,-0.3125 -0.28125,0.71875 -0.3125,0.71875 -0.28125,0.65625 -0.28125,0.6875 -0.34375,0.59375 -0.3125,0.59375 -0.375,0.5 -0.34375,0.53125 -0.375,0.46875 -0.375,0.4375 -0.40625,0.40625 -0.40625,0.375 -0.4375,0.3125 -0.40625,0.28125 -0.46875,0.3125 -0.4375,0.21875 -0.40625,0.0937 -0.40625,0.125 -0.40625,0.0625 h -0.375 l -0.40625,0.0312 -0.375,-0.0312 -0.40625,-0.0625 -0.40625,-0.0625 -0.40625,-0.15625 -0.375,-0.15625 -0.40625,-0.1875 -0.40625,-0.21875 -0.375,-0.21875 -0.40625,-0.28125 -0.40625,-0.28125 -0.375,-0.375 -0.28125,-0.5 -0.21875,-0.6875 L 576,495.5 l -0.21875,-0.90625 -0.21875,-1.0625 -0.21875,-1.21875 -0.21875,-1.34375 -0.1875,-1.46875 0.1875,-6.53125 1.25,2.40625 1.1875,6.4375 0.125,0.34375 0.1875,0.375 0.15625,0.28125 0.1875,0.3125 0.15625,0.25 0.1875,0.25 0.1875,0.1875 0.21875,0.15625 0.21875,0.125 0.21875,0.125 0.21875,0.0625 0.25,0.0312 h 0.28125 0.25 l 0.25,-0.0625 0.25,-0.0625 0.34375,-0.125 0.28125,-0.125 0.28125,-0.15625 0.3125,-0.1875 0.25,-0.1875 0.25,-0.1875 0.25,-0.21875 0.25,-0.25 0.40625,-0.46875 0.40625,-0.59375 0.375,-0.625 0.28125,-0.6875 0.0625,-0.28125 0.0625,-0.34375 -0.0625,-0.46875 -0.0937,-0.5 -0.15625,-0.65625 -0.1875,-0.71875 -0.25,-0.84375 -0.3125,-0.90625 -1.46875,-4.125 -0.15625,-0.46875 -0.0937,-0.40625 v -0.40625 l 0.0312,-0.34375 0.0625,-0.34375 0.15625,-0.25 0.21875,-0.25 0.25,-0.21875 1.84375,0.0625 4.4375,8.46875 0.21875,0.375 0.25,0.28125 0.3125,0.3125 0.3125,0.21875 0.375,0.21875 0.375,0.125 0.40625,0.125 0.4375,0.0937 0.4375,0.0312 h 0.5 l 0.5,-0.0312 0.5625,-0.0312 0.59375,-0.0937 0.625,-0.15625 0.59375,-0.1875 0.65625,-0.21875 0.1875,-0.4375 0.15625,-0.40625 0.0937,-0.34375 0.125,-0.34375 0.0312,-0.34375 v -0.28125 L 596.65625,486 l -0.0625,-0.25 -2.3125,-3.46875 -2.5625,-4.15625 -0.0625,-0.28125 -0.0937,-0.21875 v -0.25 -0.21875 -0.21875 l 0.0937,-0.1875 0.0625,-0.1875 0.125,-0.1875 0.125,-0.125 0.15625,-0.15625 0.1875,-0.125 0.25,-0.0937 0.21875,-0.0625 0.28125,-0.0937 0.3125,-0.0312 0.34375,-0.0625 z m -66.625,4.5 h 0.15625 0.1875 0.15625 l 8.65625,1.75 0.15625,0.0312 0.15625,0.0625 0.0937,0.0937 0.0937,0.0937 0.0312,0.0625 v 0.15625 l -0.0312,0.125 -0.0625,0.0937 -4.125,6.125 -0.0937,0.125 -0.125,0.0937 -0.125,0.0937 -0.1875,0.0625 -0.15625,0.0625 h -0.1875 -0.1875 -0.15625 l -8.625,-1.75 -0.1875,-0.0312 -0.125,-0.0625 -0.0937,-0.0625 -0.0937,-0.125 -0.0312,-0.0625 -0.0312,-0.15625 0.0312,-0.0937 0.0937,-0.125 4.125,-6.125 0.0625,-0.125 0.15625,-0.0937 0.125,-0.125 0.15625,-0.0312 0.1875,-0.0625 z m 31.6875,5.40625 1.96875,4.09375 1.8125,3.78125 1.65625,3.5 1.5,3.1875 1.28125,2.875 1.125,2.59375 0.46875,1.1875 0.4375,1.125 0.40625,1.03125 0.3125,0.9375 0.6875,-0.53125 0.65625,-0.5625 0.71875,-0.625 0.78125,-0.625 0.8125,-0.6875 0.9375,-0.71875 0.9375,-0.78125 1.09375,-0.78125 0.5,-0.40625 0.5,-0.34375 0.4375,-0.25 0.34375,-0.1875 0.375,-0.0937 0.28125,-0.0937 h 0.21875 l 0.21875,0.125 0.15625,0.0937 0.125,0.21875 0.0625,0.25 0.0312,0.34375 v 0.40625 l -0.0312,0.4375 -0.125,0.46875 -0.0937,0.5625 -0.375,1.28125 -0.5,1.46875 -0.625,1.65625 -0.78125,1.875 -0.90625,2.03125 -0.96875,2.1875 -1.09375,2.375 -1.25,2.53125 0.65625,2.875 0.625,2.9375 0.5625,2.90625 0.625,2.9375 0.59375,2.90625 0.625,2.90625 0.65625,2.84375 0.6875,2.8125 0.75,2.78125 0.78125,2.6875 0.40625,1.3125 0.4375,1.28125 0.46875,1.28125 0.5,1.25 0.46875,1.25 0.5,1.1875 0.5625,1.1875 0.5625,1.15625 0.59375,1.09375 0.625,1.09375 0.65625,1.0625 0.65625,1.03125 -0.0937,-0.46875 -0.0937,-0.53125 v -0.53125 -0.625 l 0.125,-0.65625 0.0937,-0.6875 0.1875,-0.78125 0.21875,-0.75 0.25,-0.8125 0.3125,-0.84375 0.34375,-0.875 0.40625,-0.875 0.4375,-0.875 0.46875,-0.90625 0.53125,-0.875 0.53125,-0.9375 0.59375,-0.875 0.625,-0.90625 0.65625,-0.875 0.71875,-0.84375 0.75,-0.84375 0.75,-0.78125 0.8125,-0.78125 0.8125,-0.78125 0.875,-0.6875 0.90625,-0.65625 0.90625,-0.625 0.96875,-0.53125 0.96875,-0.46875 1,-0.4375 1.0625,-0.40625 1,-0.3125 -0.6875,-0.0312 -0.71875,0.0312 -0.75,0.0312 -0.75,0.0937 -0.78125,0.0937 -0.75,0.15625 -0.78125,0.15625 -0.75,0.1875 -1.53125,0.34375 -1.5625,0.4375 -1.53125,0.46875 -1.40625,0.5 -1.40625,0.4375 -1.3125,0.40625 -1.1875,0.3125 -1.09375,0.28125 -0.5,0.0937 -0.46875,0.0625 -0.4375,0.0312 h -0.375 l -0.3125,-0.0312 -0.34375,-0.0625 -0.21875,-0.125 -0.21875,-0.1875 -0.34375,-0.4375 -0.375,-0.375 -0.25,-0.46875 -0.25,-0.375 -0.1875,-0.40625 -0.1875,-0.375 -0.125,-0.40625 -0.0625,-0.34375 -0.0312,-0.40625 v -0.375 -0.375 l 0.0312,-0.34375 0.15625,-0.75 0.21875,-0.71875 0.59375,-1.4375 0.59375,-1.5 0.28125,-0.75 0.21875,-0.78125 0.0937,-0.40625 0.0312,-0.4375 0.0937,-0.40625 v -0.4375 l 0.0937,-1.53125 0.25,-1.4375 0.375,-1.34375 0.5625,-1.25 0.65625,-1.1875 0.78125,-1.0625 0.875,-1.03125 1,-0.90625 1.09375,-0.875 1.15625,-0.8125 1.21875,-0.71875 1.28125,-0.6875 1.34375,-0.625 1.40625,-0.625 1.375,-0.53125 1.46875,-0.53125 2.875,-0.96875 2.84375,-0.875 2.75,-0.875 2.5625,-0.84375 1.1875,-0.4375 1.15625,-0.5 1,-0.46875 0.9375,-0.5 0.84375,-0.5625 0.6875,-0.5625 0.625,-0.59375 0.4375,-0.6875 0.0937,-0.1875 0.0312,-0.21875 v -0.1875 l -0.0312,-0.21875 -0.0312,-0.21875 -0.0625,-0.1875 -0.125,-0.21875 -0.0937,-0.1875 -0.28125,-0.40625 -0.25,-0.34375 -0.25,-0.375 -0.15625,-0.375 -0.15625,-0.65625 -0.15625,-0.6875 -0.1875,-0.71875 -0.0937,-0.71875 -0.125,-0.71875 -0.0625,-0.65625 -0.0312,-0.6875 -0.0625,-0.65625 0.0625,-0.5625 v -0.5 l 0.0625,-0.5 0.0625,-0.5 0.0937,-0.46875 0.125,-0.4375 0.125,-0.4375 0.125,-0.40625 0.1875,-0.40625 0.21875,-0.34375 0.1875,-0.375 0.25,-0.34375 0.25,-0.28125 0.3125,-0.28125 0.28125,-0.3125 0.3125,-0.21875 0.6875,-0.46875 0.6875,-0.34375 0.71875,-0.34375 0.78125,-0.28125 0.75,-0.21875 0.8125,-0.15625 0.84375,-0.0625 0.875,-0.0625 0.6875,0.0625 0.6875,0.0312 0.75,0.0625 0.75,0.15625 0.78125,0.1875 0.8125,0.21875 0.78125,0.25 0.84375,0.3125 0.84375,0.375 0.84375,0.46875 0.875,0.53125 0.875,0.53125 0.875,0.65625 0.875,0.75 0.875,0.78125 0.875,0.875 0.625,0.65625 0.59375,0.625 0.5625,0.65625 0.46875,0.625 0.46875,0.65625 0.40625,0.625 0.40625,0.625 0.3125,0.625 0.25,0.625 0.28125,0.625 0.15625,0.59375 0.15625,0.625 0.0625,0.625 0.0625,0.625 v 0.625 l -0.0937,0.625 -0.4375,2.53125 -1.25,2.375 -0.375,0.0625 -0.40625,0.15625 -0.4375,0.15625 -0.40625,0.28125 -0.4375,0.28125 -0.40625,0.3125 -0.4375,0.40625 -0.40625,0.40625 -0.84375,0.96875 -0.84375,0.96875 -0.78125,1.0625 -0.8125,1.0625 -0.78125,1.03125 -0.6875,0.9375 -0.6875,0.84375 -0.65625,0.65625 -0.28125,0.25 -0.3125,0.21875 -0.25,0.15625 -0.25,0.0937 h -0.21875 l -0.21875,-0.0312 -0.21875,-0.0937 L 628,524 l -0.40625,-0.5625 -0.4375,-0.46875 -0.4375,-0.40625 -0.46875,-0.40625 -0.5,-0.34375 -0.53125,-0.40625 -0.53125,-0.4375 -0.5625,-0.5625 -0.9375,0.375 -0.96875,0.28125 -0.96875,0.25 -0.96875,0.25 -1.9375,0.46875 -1.9375,0.375 -1.96875,0.375 -1.96875,0.40625 -1.03125,0.21875 -0.96875,0.21875 -1.03125,0.25 -0.96875,0.28125 -0.625,0.25 -0.625,0.28125 -0.59375,0.375 -0.59375,0.375 -0.25,0.21875 -0.21875,0.21875 -0.21875,0.28125 -0.1875,0.21875 -0.125,0.25 -0.125,0.25 -0.0625,0.25 -0.0312,0.25 v 0.28125 l 0.0312,0.25 0.0937,0.25 0.1875,0.25 0.21875,0.25 0.25,0.28125 0.375,0.25 0.40625,0.21875 0.5,0.21875 0.5625,0.21875 0.625,0.21875 0.71875,0.1875 0.8125,0.15625 0.90625,0.15625 1,0.15625 1.09375,0.125 1.84375,0.21875 1.65625,0.21875 1.5,0.21875 1.34375,0.1875 1.34375,0.21875 1.375,0.15625 1.40625,0.1875 1.5625,0.0937 1.78125,0.125 2.03125,0.0625 2.375,0.0312 2.78125,-0.0312 3.21875,-0.0312 3.71875,-0.0937 4.3125,-0.15625 4.96875,-0.21875 -0.375,1.53125 -0.40625,1.375 -0.3125,1.3125 -0.34375,1.28125 -0.34375,1.25 -0.34375,1.3125 -0.34375,1.40625 -0.40625,1.53125 -0.21875,0.1875 -0.3125,0.125 -0.3125,0.15625 -0.375,0.1875 -0.84375,0.28125 -1.03125,0.25 -1.125,0.3125 -1.25,0.25 -1.3125,0.21875 -1.40625,0.21875 -1.46875,0.1875 -1.53125,0.1875 -1.53125,0.15625 -1.53125,0.15625 -3.03125,0.25 -2.875,0.21875 -1.375,0.125 -1.3125,0.15625 -1.34375,0.15625 -1.375,0.28125 -1.3125,0.25 -1.3125,0.3125 -1.28125,0.40625 -1.28125,0.40625 -1.25,0.46875 -1.28125,0.46875 -1.25,0.5625 -1.21875,0.625 -1.1875,0.625 -1.21875,0.6875 -1.15625,0.6875 -1.15625,0.78125 -1.09375,0.75 -1,0.75 -0.9375,0.71875 -0.875,0.65625 -0.78125,0.65625 -0.75,0.65625 -0.71875,0.65625 -0.65625,0.65625 -0.65625,0.65625 -0.625,0.6875 -0.625,0.71875 -0.625,0.71875 -1.3125,1.59375 -1.375,1.8125 -0.3125,0.40625 -0.34375,0.5 -0.375,0.59375 -0.375,0.71875 -0.1875,0.375 -0.125,0.40625 -0.125,0.4375 -0.0937,0.375 -0.0625,0.46875 -0.0312,0.46875 0.0312,0.46875 0.0625,0.4375 0.125,0.65625 0.1875,0.65625 0.21875,0.65625 0.25,0.625 0.34375,0.625 0.375,0.59375 0.15625,0.28125 0.28125,0.25 0.21875,0.25 0.25,0.21875 0.28125,0.21875 0.3125,0.1875 0.3125,0.1875 0.34375,0.1875 0.34375,0.0937 0.40625,0.15625 0.40625,0.0625 0.4375,0.0937 0.4375,0.0312 h 0.5 0.5 l 0.53125,-0.0625 0.59375,-0.0937 0.59375,-0.0937 0.59375,-0.15625 0.65625,-0.1875 0.78125,-0.21875 0.71875,-0.0937 0.65625,-0.0625 0.625,0.0625 0.53125,0.125 0.46875,0.21875 0.4375,0.28125 0.375,0.3125 0.3125,0.375 0.28125,0.4375 0.28125,0.46875 0.21875,0.5 0.1875,0.5625 0.125,0.59375 0.15625,0.5625 0.0937,0.625 0.3125,2.5625 0.25,2.375 0.0625,0.5 0.0937,0.53125 0.125,0.4375 0.125,0.40625 0.1875,0.34375 0.15625,0.3125 0.25,0.21875 0.25,0.15625 0.28125,1.375 0.28125,1.15625 0.125,0.46875 0.0625,0.5 0.0937,0.375 v 0.34375 0.3125 l -0.0937,0.28125 -0.125,0.25 -0.1875,0.1875 -0.21875,0.1875 -0.34375,0.125 -0.375,0.125 -0.46875,0.0937 -2.25,-0.0937 -2.1875,-0.21875 -2.125,-0.34375 -2,-0.40625 -2,-0.53125 -1.84375,-0.625 -1.78125,-0.75 -1.71875,-0.8125 -1.65625,-0.9375 -1.59375,-0.96875 -1.5,-1.09375 -1.46875,-1.125 -1.34375,-1.25 -1.34375,-1.3125 -1.21875,-1.40625 -1.1875,-1.40625 -1.125,-1.5 -1.0625,-1.59375 -0.96875,-1.625 -0.96875,-1.65625 -0.875,-1.71875 -0.84375,-1.78125 -0.78125,-1.78125 -0.71875,-1.875 -0.6875,-1.875 -0.625,-1.9375 -0.5625,-1.90625 -0.5625,-2 -0.46875,-1.96875 -0.4375,-2 -0.40625,-2 -0.375,-2.0625 0.0312,-0.4375 -0.0312,-0.4375 -0.0312,-0.375 -0.0312,-0.34375 -0.125,-0.3125 -0.0937,-0.28125 -0.125,-0.28125 -0.125,-0.21875 -0.1875,-0.21875 -0.1875,-0.1875 -0.1875,-0.15625 -0.1875,-0.15625 -0.21875,-0.0937 -0.21875,-0.0625 -0.21875,-0.0937 -0.21875,-0.0625 -0.46875,-0.0312 -0.4375,0.0312 -0.40625,0.0625 -0.40625,0.15625 -0.3125,0.21875 -0.25,0.21875 -0.125,0.125 -0.0625,0.125 -0.0937,0.15625 -0.0312,0.15625 -0.0937,0.71875 -0.125,0.625 -0.0937,0.5625 -0.125,0.5 -0.28125,0.9375 -0.375,1.0625 -0.21875,0.5 -0.1875,0.5 -0.21875,0.46875 -0.21875,0.4375 -0.25,0.46875 -0.375,0.5 -0.4375,0.59375 -0.53125,0.6875 -0.6875,0.875 -0.875,1 -1.125,1.15625 -1.21875,1.3125 -1.4375,1.4375 -1.5625,1.53125 -1.75,1.625 -1.875,1.6875 -1.15625,1.03125 -1.15625,1 -1.125,0.9375 -1.125,0.90625 -1.09375,0.875 -1.09375,0.8125 -1.09375,0.8125 -1.0625,0.71875 -1.09375,0.71875 -1.0625,0.65625 -1.0625,0.59375 -1.03125,0.59375 -1.0625,0.53125 -1.0625,0.5 -1.03125,0.4375 -1.0625,0.40625 -1.0625,0.34375 -1.0625,0.34375 -1.0625,0.28125 -1.0625,0.21875 -1.09375,0.1875 -1.09375,0.15625 -1.125,0.0937 -1.09375,0.0937 h -1.1875 -1.125 l -1.1875,-0.0937 -1.1875,-0.0937 -1.21875,-0.15625 -1.21875,-0.21875 -1.25,-0.25 -1.28125,-0.28125 -0.8125,-0.1875 -0.75,-0.25 -0.75,-0.34375 -0.6875,-0.3125 -0.6875,-0.375 -0.65625,-0.4375 -0.625,-0.4375 -0.59375,-0.53125 -0.59375,-0.53125 -0.53125,-0.5625 -0.5,-0.59375 -0.5,-0.625 -0.4375,-0.71875 -0.4375,-0.6875 -0.40625,-0.75 -0.34375,-0.78125 -0.375,-0.8125 -0.28125,-0.84375 -0.3125,-0.875 -0.25,-0.875 -0.21875,-0.9375 -0.21875,-0.9375 -0.1875,-1 -0.125,-1 -0.125,-1.03125 -0.0625,-1.0625 -0.0937,-1.09375 -0.0312,-1.125 v -1.125 l 0.0312,-1.125 0.0625,-1.21875 0.0937,-1.15625 0.0625,-1.03125 0.125,-0.96875 0.0937,-0.875 0.125,-0.84375 0.125,-0.78125 0.125,-0.71875 0.15625,-0.625 0.15625,-0.59375 -0.5,-0.34375 -0.46875,-0.4375 -0.4375,-0.46875 -0.40625,-0.46875 -0.625,-0.71875 -0.84375,-0.875 -0.96875,-1.0625 -1.09375,-1.28125 -0.59375,-0.6875 -0.625,-0.78125 -0.5625,-0.84375 -0.625,-0.875 -0.59375,-0.90625 -0.59375,-0.96875 -0.5625,-1.0625 -0.5625,-1.09375 -0.5,-1.1875 -0.5,-1.25 -0.4375,-1.28125 -0.375,-1.375 -0.34375,-1.4375 -0.28125,-1.46875 -0.1875,-1.59375 -0.15625,-1.625 -0.0625,-1.71875 v -1.84375 l 0.0937,-1.84375 0.21875,-1.9375 0.3125,-2.0625 0.40625,-2.0625 0.5,-2.21875 0.65625,-2.28125 0.46875,-1.09375 0.46875,-0.9375 0.21875,-0.375 0.28125,-0.40625 0.21875,-0.34375 0.25,-0.28125 0.21875,-0.25 0.21875,-0.21875 0.25,-0.1875 0.21875,-0.15625 0.21875,-0.0937 0.21875,-0.0937 0.21875,-0.0312 h 0.21875 l 0.1875,0.0312 0.21875,0.0937 0.1875,0.0937 0.21875,0.15625 0.1875,0.1875 0.15625,0.21875 0.1875,0.25 0.15625,0.28125 0.1875,0.34375 0.15625,0.34375 0.125,0.40625 0.15625,0.4375 0.25,1 0.25,1.09375 -0.0312,2.40625 -0.0625,2.1875 -0.0937,2.0625 0.0625,2 0.0312,0.9375 0.0937,1 0.125,0.9375 0.21875,1 0.21875,1.03125 0.28125,1 0.40625,1.0625 0.4375,1.0625 0.375,0.8125 0.3125,0.71875 0.40625,0.78125 0.40625,0.71875 0.40625,0.6875 0.46875,0.65625 0.25,0.3125 0.25,0.28125 0.3125,0.3125 0.28125,0.25 0.28125,0.25 0.34375,0.25 0.3125,0.21875 0.34375,0.1875 0.375,0.1875 0.40625,0.125 0.375,0.15625 0.4375,0.125 0.4375,0.0625 0.5,0.0625 0.46875,0.0625 h 0.5 0.5625 l 0.53125,-0.0937 0.59375,-0.0625 0.625,-0.125 0.0937,-0.1875 0.15625,-0.15625 0.125,-0.3125 0.125,-0.28125 0.21875,-0.78125 0.25,-0.90625 0.53125,-2.25 0.59375,-2.71875 0.34375,-1.46875 0.375,-1.53125 0.46875,-1.5625 0.46875,-1.5625 0.3125,-0.8125 0.28125,-0.78125 0.28125,-0.78125 0.34375,-0.78125 0.375,-0.75 0.34375,-0.78125 0.40625,-0.75 0.40625,-0.75 0.4375,-0.71875 0.46875,-0.75 0.53125,-0.6875 0.5,-0.71875 0.53125,-0.75 0.5625,-0.6875 0.59375,-0.71875 0.5625,-0.6875 0.625,-0.65625 0.625,-0.71875 0.65625,-0.65625 0.65625,-0.625 0.65625,-0.59375 0.65625,-0.625 0.71875,-0.59375 0.65625,-0.5625 0.6875,-0.53125 0.6875,-0.5 0.6875,-0.5 0.65625,-0.46875 0.71875,-0.4375 0.65625,-0.40625 0.6875,-0.34375 0.65625,-0.34375 0.65625,-0.28125 0.625,-0.25 0.625,-0.25 0.59375,-0.15625 0.59375,-0.15625 0.59375,-0.0625 0.59375,-0.0937 h 0.5 l 0.375,-0.0312 0.28125,-0.0312 0.28125,-0.0312 0.3125,0.0312 0.21875,0.0312 0.25,0.0312 0.21875,0.0937 0.1875,0.0937 0.1875,0.125 0.125,0.125 0.15625,0.15625 0.15625,0.15625 0.25,0.34375 0.1875,0.375 0.125,0.40625 0.125,0.4375 0.0937,0.40625 0.0937,0.4375 0.0937,0.375 0.0937,0.34375 0.0625,0.34375 0.0937,0.25 0.1875,0.375 0.125,0.34375 0.0625,0.375 0.0625,0.375 v 0.75 0.84375 l -0.0312,0.90625 0.0937,1.0625 0.0625,0.5625 0.0937,0.625 0.1875,0.65625 0.21875,0.6875 0.15625,0.40625 0.21875,0.4375 0.21875,0.375 0.28125,0.34375 0.3125,0.375 0.34375,0.3125 0.375,0.34375 0.375,0.28125 0.4375,0.3125 0.4375,0.28125 0.46875,0.25 0.46875,0.21875 0.46875,0.21875 0.53125,0.21875 0.53125,0.1875 0.53125,0.15625 0.53125,0.1875 0.5625,0.0937 0.53125,0.125 0.59375,0.0937 1.09375,0.15625 1.09375,0.0312 0.5625,0.0312 0.5,-0.0312 0.5,-0.0312 0.53125,-0.0312 0.46875,-0.0937 0.46875,-0.0937 0.46875,-0.0937 0.40625,-0.125 0.53125,-0.15625 0.4375,-0.1875 0.46875,-0.125 0.4375,-0.1875 -0.59375,-1.96875 -0.625,-2.03125 -0.625,-1.96875 -0.6875,-1.9375 -0.6875,-1.9375 -0.6875,-1.90625 -0.75,-1.8125 -0.6875,-1.8125 1.65625,-7.4375 1.46875,-6.59375 z m -50.96875,0.6875 H 508 h 0.125 0.1875 l 8.65625,1.75 0.15625,0.0312 0.125,0.0625 0.125,0.0937 0.0625,0.0937 0.0625,0.0937 v 0.125 0.125 l -0.0937,0.0937 -4.125,6.15625 -0.0937,0.0937 -0.125,0.125 -0.15625,0.0937 -0.125,0.0312 -0.1875,0.0937 h -0.1875 -0.1875 -0.15625 l -8.65625,-1.75 -0.15625,-0.0625 -0.125,-0.0625 -0.0937,-0.0625 -0.0937,-0.125 -0.0312,-0.0625 v -0.15625 -0.0937 l 0.0625,-0.125 4.125,-6.125 0.125,-0.125 0.0937,-0.0937 0.15625,-0.0937 0.15625,-0.0625 0.1875,-0.0625 z m 118.40625,17.0625 -0.21875,0.0312 -0.90625,0.25 -0.59375,0.6875 -0.0937,0.21875 v 0.3125 0.3125 l 0.0625,0.40625 0.15625,0.90625 0.28125,1.09375 0.3125,1.09375 0.34375,0.96875 0.3125,0.75 0.34375,0.625 h 0.34375 l 0.34375,-0.0312 0.21875,-0.0312 0.28125,-0.125 0.4375,-0.125 0.5,-0.25 0.90625,-0.53125 0.875,-0.5 0.90625,-0.5625 0.90625,-0.53125 -0.0937,-0.25 -0.0937,-0.1875 -0.125,-0.375 -0.21875,-0.375 -0.21875,-0.3125 -0.21875,-0.34375 -0.25,-0.28125 -0.3125,-0.34375 -0.3125,-0.28125 -0.375,-0.3125 -0.34375,-0.3125 -0.3125,-0.25 -0.34375,-0.25 -0.25,-0.15625 -0.75,-0.40625 -0.65625,-0.3125 -0.3125,-0.125 -0.28125,-0.0625 -0.25,-0.0312 z m -92,13.03125 -0.46875,0.0625 -0.53125,0.0937 -0.5,0.125 -0.5625,0.1875 -0.5625,0.28125 -0.625,0.28125 -0.65625,0.375 -0.40625,0.25 -0.40625,0.25 -0.375,0.28125 -0.34375,0.34375 -0.34375,0.3125 -0.3125,0.34375 -0.3125,0.3125 -0.28125,0.34375 -0.5625,0.71875 -0.5,0.75 -0.40625,0.71875 -0.40625,0.71875 -0.65625,1.40625 -0.53125,1.1875 -0.21875,0.5 -0.1875,0.4375 -0.1875,0.3125 -0.1875,0.21875 -0.4375,0.75 -0.34375,0.65625 -0.34375,0.6875 -0.28125,0.65625 -0.28125,0.65625 -0.21875,0.625 -0.15625,0.65625 -0.15625,0.625 -0.125,0.625 -0.0937,0.5625 -0.0625,0.625 -0.0937,0.59375 -0.0625,1.15625 -0.0312,1.15625 v 1.15625 l -0.0312,1.125 -0.0625,1.125 -0.0625,1.15625 -0.0625,0.53125 -0.0937,0.59375 -0.0937,0.59375 -0.15625,0.53125 -0.125,0.59375 -0.25,0.59375 -0.21875,0.59375 -0.25,0.59375 -0.3125,0.6875 -0.40625,0.625 -0.4375,0.59375 -0.5,0.53125 -0.53125,0.5 -0.53125,0.4375 -0.59375,0.40625 -0.625,0.34375 -0.625,0.34375 -0.65625,0.25 -0.6875,0.21875 -0.65625,0.15625 -0.6875,0.0937 -0.71875,0.0625 -0.71875,0.0625 -0.6875,-0.0625 0.28125,0.6875 0.34375,0.71875 0.28125,0.75 0.34375,0.8125 0.3125,0.875 0.375,0.96875 0.3125,0.96875 0.375,1.0625 0.25,0.78125 0.3125,0.65625 0.28125,0.625 0.28125,0.53125 0.34375,0.46875 0.28125,0.40625 0.34375,0.40625 0.34375,0.34375 0.375,0.28125 0.375,0.28125 0.40625,0.3125 0.375,0.25 0.9375,0.5 0.96875,0.59375 1.1875,0.53125 1.21875,0.40625 1.3125,0.25 1.4375,0.0937 1.46875,-0.0937 1.5625,-0.15625 1.625,-0.34375 1.625,-0.4375 1.71875,-0.59375 1.71875,-0.65625 1.75,-0.71875 1.78125,-0.84375 1.78125,-0.90625 1.78125,-1 1.75,-1.0625 1.71875,-1.125 1.71875,-1.125 1.6875,-1.21875 1.625,-1.1875 1.59375,-1.25 1.53125,-1.25 1.4375,-1.25 1.375,-1.25 1.28125,-1.21875 1.1875,-1.25 1.09375,-1.15625 0.96875,-1.1875 0.875,-1.09375 0.6875,-1.0625 0.625,-0.96875 0.4375,-0.96875 0.28125,-0.8125 0.1875,-0.9375 0.21875,-0.90625 0.15625,-0.90625 0.125,-0.90625 0.125,-0.96875 0.0625,-0.9375 0.0312,-1 0.0625,-0.9375 0.0312,-1 -0.0312,-0.96875 -0.0625,-1 -0.0312,-0.96875 -0.0625,-1.03125 -0.125,-1 -0.0937,-1 -0.15625,-1.03125 -3.03125,0.71875 -3.03125,0.65625 -1.53125,0.3125 -1.5,0.25 -0.75,0.0937 -0.75,0.0937 -0.75,0.0625 -0.75,0.0312 h -0.71875 -0.75 l -0.6875,-0.0312 -0.71875,-0.0625 -0.6875,-0.125 -0.71875,-0.125 -0.65625,-0.1875 -0.6875,-0.1875 -0.65625,-0.25 -0.65625,-0.3125 -0.625,-0.3125 -0.625,-0.40625 -0.625,-0.40625 -0.5625,-0.46875 -0.59375,-0.5625 -0.53125,-0.53125 -0.59375,-1.21875 -0.65625,-1.34375 -0.375,-0.6875 -0.40625,-0.65625 -0.21875,-0.34375 -0.21875,-0.28125 -0.25,-0.3125 -0.25,-0.28125 -0.3125,-0.25 -0.28125,-0.21875 -0.28125,-0.21875 -0.375,-0.1875 -0.3125,-0.15625 -0.40625,-0.0937 -0.375,-0.125 -0.4375,-0.0312 h -0.4375 z m 15.0625,16.3125 h 0.15625 l 8.78125,0.875 h 0.15625 l 0.125,0.0625 0.125,0.0625 0.0625,0.0937 0.0937,0.0937 v 0.125 0.0937 l -0.0625,0.15625 -3.5,6.5 -0.0625,0.15625 -0.125,0.0937 -0.125,0.125 -0.15625,0.0625 -0.1875,0.0625 -0.15625,0.0625 h -0.15625 -0.1875 l -8.78125,-0.84375 -0.1875,-0.0625 -0.125,-0.0625 -0.125,-0.0625 -0.0625,-0.0937 -0.0312,-0.0937 -0.0312,-0.125 0.0312,-0.0937 0.0312,-0.15625 3.5,-6.5 0.0625,-0.15625 0.125,-0.0937 0.15625,-0.0625 0.125,-0.125 0.15625,-0.0312 0.1875,-0.0312 0.1875,-0.0312 z m -18.78125,8 h 0.1875 0.15625 l 8.78125,0.875 h 0.1875 l 0.125,0.0625 0.125,0.0625 0.0625,0.0937 0.0312,0.0937 0.0625,0.125 v 0.0937 l -0.0937,0.15625 -3.5,6.5 -0.0625,0.15625 -0.125,0.0937 -0.0937,0.0937 -0.1875,0.0937 -0.15625,0.0312 -0.1875,0.0937 h -0.15625 -0.1875 l -8.78125,-0.90625 h -0.15625 l -0.125,-0.0625 -0.125,-0.0625 -0.0625,-0.0937 -0.0625,-0.0937 v -0.125 -0.0937 l 0.0312,-0.15625 3.5,-6.5 0.0625,-0.156 0.125,-0.0937 0.15625,-0.0625 0.125,-0.125 0.1875,-0.0312 0.15625,-0.0625 z m 90.75,16.78125 h 0.1875 l 0.15625,0.0625 0.15625,0.0312 0.1875,0.0625 0.15625,0.0625 0.0937,0.125 0.15625,0.0937 0.0937,0.125 0.21875,0.3125 0.1875,0.40625 0.1875,0.5 0.125,0.53125 v 0.25 l -0.0937,0.3125 -0.0625,0.28125 -0.125,0.3125 -0.125,0.34375 -0.1875,0.34375 -0.21875,0.3125 -0.25,0.375 -3.15625,4.40625 -2.53125,4.4375 0.0625,0.3125 0.0625,0.28125 0.0937,0.28125 0.15625,0.21875 0.21875,0.125 0.25,0.125 0.3125,0.0625 0.3125,0.0312 0.34375,-0.0312 0.34375,-0.0312 0.375,-0.0312 0.4375,-0.125 0.875,-0.25 1,-0.3125 1.125,-0.5 1.21875,-0.53125 1.3125,-0.65625 1.375,-0.78125 1.40625,-0.78125 1.21875,-0.75 1.09375,-0.6875 0.96875,-0.59375 0.78125,-0.5625 0.625,-0.53125 0.53125,-0.4375 0.3125,-0.40625 -0.25,0.53125 -0.3125,0.5 -0.46875,0.59375 -0.53125,0.625 -0.625,0.625 -0.71875,0.6875 -0.8125,0.71875 -0.875,0.78125 -5.6875,4.1875 -0.84375,0.53125 -0.8125,0.375 -0.78125,0.375 -0.65625,0.28125 -0.65625,0.28125 -0.53125,0.125 -0.53125,0.125 -0.4375,0.0312 -0.46875,-0.0312 -0.4375,-0.0937 -0.40625,-0.125 -0.34375,-0.21875 -0.375,-0.25 -0.34375,-0.34375 -0.28125,-0.40625 L 614.75,574 l -0.21875,-1.28125 0.0312,-0.34375 0.0937,-0.5 0.15625,-0.53125 0.25,-0.625 0.3125,-0.6875 0.34375,-0.78125 0.40625,-0.84375 0.5,-0.90625 4.21875,-7.15625 L 620,559.9375 l -0.875,0.21875 -0.6875,0.1875 -0.5625,0.21875 -0.40625,0.21875 v -1.0625 l 2.09375,-1.90625 z m -53.125,9.90625 -2.625,7.46875 -0.59375,1.28125 -0.5625,1.15625 -0.28125,0.5 -0.28125,0.5 -0.3125,0.4375 -0.28125,0.40625 -0.3125,0.375 -0.34375,0.40625 -0.3125,0.375 -0.375,0.375 -0.78125,0.6875 -0.84375,0.65625 -6.375,3.3125 -8.09375,4.5 -0.90625,0.5625 -0.875,0.53125 -0.75,0.5625 -0.71875,0.5625 -0.65625,0.59375 -0.53125,0.59375 -0.46875,0.59375 -0.4375,0.5625 -0.625,-1.375 -0.0937,-0.375 -0.0312,-0.3125 v -0.375 -0.34375 l 0.0312,-0.34375 0.0312,-0.375 0.125,-0.375 0.0625,-0.3125 1.625,-4.65625 0.0937,-0.25 0.15625,-0.21875 0.1875,-0.25 0.21875,-0.25 0.46875,-0.53125 0.625,-0.5 0.71875,-0.5625 0.875,-0.5625 1,-0.59375 1.09375,-0.59375 9.28125,-4.875 1.46875,-0.8125 1.375,-0.84375 1.3125,-0.84375 1.28125,-0.90625 1.1875,-0.90625 L 564,571 l 1.03125,-0.9375 0.96875,-1 z m 1.53125,18.34375 4.34375,4.75 0.40625,0.4375 0.40625,0.4375 0.3125,0.53125 0.3125,0.5625 0.28125,0.59375 0.21875,0.625 0.1875,0.6875 0.1875,0.71875 0.3125,2.28125 -0.21875,0.40625 -0.25,0.40625 -0.25,0.34375 -0.28125,0.34375 -0.34375,0.375 -0.34375,0.28125 -0.34375,0.28125 -0.375,0.25 -0.40625,0.28125 -0.4375,0.25 -0.46875,0.1875 -0.46875,0.21875 -0.53125,0.125 -0.53125,0.15625 -0.5625,0.15625 -0.5625,0.0937 -1.375,-1.5625 -0.8125,-1.75 1,-0.21875 0.9375,-0.3125 0.375,-0.0937 0.40625,-0.15625 0.34375,-0.1875 0.3125,-0.125 0.3125,-0.1875 0.25,-0.1875 0.21875,-0.1875 0.1875,-0.1875 0.125,-0.1875 0.15625,-0.21875 0.125,-0.21875 0.0312,-0.21875 -0.125,-0.65625 -0.1875,-0.75 -0.28125,-0.84375 -0.375,-0.90625 -0.4375,-1 -0.53125,-1.09375 -0.625,-1.125 -0.6875,-1.25 -0.0937,-0.1875 -0.0312,-0.21875 v -0.21875 -0.25 l 0.0312,-0.59375 z"
         style="fill:#eebd13;fill-opacity:1;stroke:none" />
    </g>
    <g
       id="g3816"
       transform="translate(-53.538085,36.365487)">
      <text
         id="text2938"
         y="637.79144"
         x="131.70496"
         style="font-style:normal;font-weight:normal;line-height:0%;font-family:'Bitstream Vera Sans';fill:#000000;fill-opacity:1;stroke:none"
         xml:space="preserve"><tspan
           style="font-size:40px;line-height:1.25"
           y="637.79144"
           x="131.70496"
           id="tspan2940"
           sodipodi:role="line"></tspan><tspan
           style="font-size:10px;line-height:1.25"
           id="tspan2942"
           y="660.42151"
           x="131.70496"
           sodipodi:role="line">Fonta :</tspan><tspan
           style="font-size:10px;line-height:1.25"
           id="tspan2944"
           y="672.92151"
           x="131.70496"
           sodipodi:role="line">Temu Akrab : Organic Elements</tspan><tspan
           id="tspan2946"
           style="font-size:10px;line-height:1.25"
           y="685.42151"
           x="131.70496"
           sodipodi:role="line">warga : Sawasdee </tspan></text>
    </g>
    <path
       inkscape:connector-curvature="0"
       style="color:#000000;display:inline;overflow:visible;visibility:visible;fill:#eebd13;fill-opacity:1;fill-rule:evenodd;stroke:none;stroke-width:0.5;marker:none;enable-background:accumulate"
       d=""
       id="path3794" />
    <path
       inkscape:connector-curvature="0"
       style="color:#000000;display:inline;overflow:visible;visibility:visible;fill:#eebd13;fill-opacity:1;fill-rule:evenodd;stroke:none;stroke-width:0.5;marker:none;enable-background:accumulate"
       d=""
       id="path3796" />
    <g
       id="g3823"
       transform="translate(159.6041,-11.111673)">
      <rect
         ry="5.8083773"
         y="703.41156"
         x="103.6581"
         height="14.169096"
         width="19.285715"
         id="rect3788"
         style="color:#000000;display:inline;overflow:visible;visibility:visible;fill:#eebd13;fill-opacity:1;fill-rule:evenodd;stroke:none;stroke-width:0.5;marker:none;enable-background:accumulate" />
      <text
         id="text3790"
         y="714.5697"
         x="132.67332"
         style="font-style:normal;font-weight:normal;line-height:0%;font-family:'Bitstream Vera Sans';fill:#eebd13;fill-opacity:1;stroke:none"
         xml:space="preserve"><tspan
           style="font-size:10px;line-height:1.25"
           y="714.5697"
           x="132.67332"
           id="tspan3792"
           sodipodi:role="line">238/189/19 </tspan></text>
      <rect
         style="color:#000000;display:inline;overflow:visible;visibility:visible;fill:#004780;fill-opacity:1;fill-rule:evenodd;stroke:none;stroke-width:0.5;marker:none;enable-background:accumulate"
         id="rect3802"
         width="19.285715"
         height="14.169096"
         x="103.6581"
         y="721.44727"
         ry="5.8083773" />
      <text
         xml:space="preserve"
         style="font-style:normal;font-weight:normal;line-height:0%;font-family:'Bitstream Vera Sans';fill:#004780;fill-opacity:1;stroke:none"
         x="132.67332"
         y="731.534"
         id="text3808"><tspan
           style="font-size:10px;line-height:1.25"
           sodipodi:role="line"
           id="tspan3810"
           x="132.67332"
           y="731.534">0/71/128 </tspan></text>
      <text
         xml:space="preserve"
         style="font-style:normal;font-weight:normal;line-height:0%;font-family:'Bitstream Vera Sans';fill:#eebd13;fill-opacity:1;stroke:none"
         x="132.67332"
         y="699.5697"
         id="text3812"><tspan
           style="font-size:10px;line-height:1.25"
           sodipodi:role="line"
           id="tspan3814"
           x="132.67332"
           y="699.5697">R/G/B</tspan></text>
    </g>
  </g>
</svg>
